<?xml version="1.0" encoding="utf-8"?>
<!-- Generator: Adobe Illustrator 22.1.0, SVG Export Plug-In . SVG Version: 6.00 Build 0)  -->
<svg version="1.1" id="Layer_1" xmlns="http://www.w3.org/2000/svg" xmlns:xlink="http://www.w3.org/1999/xlink" x="0px" y="0px"
	 viewBox="0 0 200 131" style="enable-background:new 0 0 200 131;" xml:space="preserve">
<style type="text/css">
	.st0{fill:#FFFFFF;}
</style>
<path class="st0" d="M0,92.8c0-8.9,2.8-16.9,8.4-23.9s12.7-11.4,21.4-13.4c2.3-10.5,7.7-19.3,16-25.9c8.4-6.8,18-10.1,29-10.1
	c10.6,0,20.2,3.2,28.5,9.8c8.4,6.6,13.8,14.9,16.2,25.2h2.4c10.6,0,19.6,3.7,27.1,11.2s11.3,16.5,11.3,27c0,10.6-3.8,19.6-11.3,27.1
	c-7.5,7.5-16.5,11.3-27.1,11.3H38.5c-5.2,0-10.2-1-14.9-3.1c-4.7-2.1-8.9-4.6-12.3-8s-6.1-7.6-8.2-12.2S0,97.9,0,92.8z M13.1,92.8
	c0,6.8,2.5,12.8,7.4,17.6c4.9,4.9,10.9,7.4,17.9,7.4h83.6c6.9,0,13-2.4,17.9-7.4c5-5,7.5-10.8,7.5-17.6c0-6.8-2.4-12.8-7.5-17.6
	c-5-4.9-10.9-7.4-17.9-7.4h-12.5c-0.9,0-1.4-0.5-1.4-1.4l-0.6-4.4c-0.9-8.5-4.5-15.6-10.7-21.2c-6.2-5.6-13.6-8.4-22.1-8.4
	s-15.8,2.8-22.2,8.5c-6.3,5.6-9.8,12.7-10.6,21.1l-0.6,3.8c0,0.9-0.5,1.4-1.4,1.4l-4.1,0.6c-6.5,0.5-11.9,3.2-16.3,8
	C15.3,80.5,13.1,86.2,13.1,92.8z M92.8,14.2c-0.9,0.8-0.7,1.4,0.6,1.9c3.9,1.7,7.1,3.3,9.7,5c1,0.3,1.7,0.2,2-0.3
	c5.5-5.1,11.8-7.7,19.1-7.7c7.3,0,13.5,2.4,18.9,7.3c5.3,4.9,8.3,10.9,8.9,18l0.8,5.8h12.8c5.9,0,10.9,2.1,15.1,6.3
	c4.2,4.2,6.3,9.2,6.3,14.9c0,5.4-1.9,10.1-5.6,14.1s-8.3,6.3-13.8,6.9c-0.9,0-1.4,0.5-1.4,1.4v10.2c0,1,0.5,1.4,1.4,1.4
	c9.1-0.5,16.7-4.1,23-10.7c6.2-6.6,9.4-14.4,9.4-23.4c0-9.5-3.3-17.6-10.1-24.3c-6.8-6.8-14.9-10.1-24.3-10.1h-1.4
	c-2.3-9-7.3-16.4-14.9-22.2C141.9,2.9,133.5,0,124.2,0C111.6-0.1,101,4.7,92.8,14.2z"/>
</svg>
