<?xml version="1.0" encoding="utf-8"?>
<!-- Generator: Adobe Illustrator 22.1.0, SVG Export Plug-In . SVG Version: 6.00 Build 0)  -->
<svg version="1.1" id="Layer_1" xmlns="http://www.w3.org/2000/svg" xmlns:xlink="http://www.w3.org/1999/xlink" x="0px" y="0px"
	 viewBox="0 0 200 200.2" style="enable-background:new 0 0 200 200.2;" xml:space="preserve">
<style type="text/css">
	.st0{fill:#FFFFFF;}
</style>
<path class="st0" d="M0,100c0-2.3,0.8-4.2,2.4-5.8C4,92.7,5.9,91.9,8,91.9h19.2c2.2,0,4,0.8,5.5,2.4c1.4,1.6,2.2,3.5,2.2,5.7
	c0,2.3-0.7,4.1-2.1,5.7c-1.4,1.6-3.3,2.4-5.5,2.4H8.1c-2.2,0-4-0.8-5.6-2.4C0.8,104.1,0,102.3,0,100z M26.9,165.3
	c0-2.2,0.8-4,2.2-5.7L42.9,146c1.4-1.5,3.3-2.2,5.6-2.2s4.1,0.8,5.6,2.2c1.5,1.4,2.3,3.2,2.3,5.4c0,2.3-0.8,4.3-2.3,6l-13.4,13.4
	c-3.9,3-7.7,3-11.6,0C27.7,169.3,26.9,167.4,26.9,165.3z M26.9,34.9c0-2.2,0.8-4,2.2-5.7c1.9-1.6,3.9-2.4,6-2.4c2.1,0,4,0.8,5.6,2.3
	l13.5,13.8c1.5,1.4,2.3,3.3,2.3,5.6s-0.8,4.1-2.3,5.6c-1.5,1.5-3.4,2.3-5.6,2.3c-2.3,0-4.1-0.8-5.6-2.3L29.2,40.7
	C27.7,39.2,26.9,37.2,26.9,34.9z M50.9,100c0-8.8,2.2-16.9,6.6-24.5s10.4-13.6,18-18s15.7-6.6,24.5-6.6c6.6,0,12.9,1.3,19,4
	c6,2.6,11.3,6.1,15.6,10.5c4.4,4.4,7.9,9.6,10.5,15.6c2.5,6,3.9,12.4,3.9,19c0,8.9-2.2,17-6.6,24.6c-4.4,7.5-10.4,13.5-17.9,17.9
	c-7.5,4.4-15.7,6.6-24.6,6.6s-17-2.2-24.6-6.6c-7.5-4.4-13.5-10.4-17.9-17.9C53.2,117,50.9,108.9,50.9,100z M66.9,100
	c0,9.2,3.2,17,9.7,23.5c6.4,6.5,14.2,9.8,23.4,9.8s17-3.3,23.5-9.8c6.5-6.5,9.8-14.3,9.8-23.5c0-9-3.3-16.8-9.8-23.3
	c-6.5-6.4-14.3-9.6-23.5-9.6c-9.1,0-16.9,3.2-23.4,9.6C70.2,83.2,66.9,91,66.9,100z M92,173.3c0-2.3,0.8-4.1,2.4-5.6
	s3.5-2.3,5.6-2.3c2.3,0,4.2,0.8,5.7,2.3s2.3,3.4,2.3,5.6V192c0,2.3-0.8,4.2-2.4,5.8s-3.5,2.4-5.6,2.4c-2.2,0-4.1-0.8-5.6-2.4
	c-1.6-1.6-2.4-3.6-2.4-5.8C92,192,92,173.3,92,173.3z M92,27.3V8.1c0-2.2,0.8-4,2.4-5.6S97.8,0,100.1,0c2.3,0,4,0.8,5.6,2.4
	s2.4,3.5,2.4,5.6v19.3c0,2.2-0.8,4-2.4,5.5c-1.6,1.5-3.5,2.2-5.6,2.2c-2.2,0-4.1-0.8-5.6-2.2C92.9,31.4,92,29.5,92,27.3z M144,151.4
	c0-2.2,0.8-4,2.2-5.3c1.4-1.5,3.2-2.2,5.3-2.2c2.3,0,4.1,0.8,5.6,2.2l13.7,13.5c1.5,1.6,2.3,3.6,2.3,5.7c0,2.2-0.8,4-2.3,5.6
	c-3.8,2.9-7.5,2.9-11.3,0l-13.4-13.4C144.7,155.8,144,153.9,144,151.4z M144,48.6c0-2.4,0.8-4.2,2.2-5.6l13.4-13.8
	c1.6-1.5,3.5-2.3,5.6-2.3c2.3,0,4.1,0.8,5.6,2.4c1.6,1.6,2.4,3.5,2.4,5.6c0,2.4-0.8,4.3-2.3,5.8l-13.7,13.5
	c-1.7,1.5-3.6,2.3-5.6,2.3c-2.2,0-3.9-0.8-5.3-2.3C144.7,52.7,144,50.8,144,48.6z M165.3,100c0-2.3,0.8-4.1,2.3-5.8
	c1.5-1.5,3.3-2.3,5.4-2.3h19c2.2,0,4,0.8,5.6,2.4s2.4,3.5,2.4,5.6c0,2.2-0.8,4-2.4,5.6s-3.5,2.4-5.6,2.4h-19c-2.2,0-4-0.8-5.5-2.4
	S165.3,102.3,165.3,100z"/>
</svg>
