<?xml version="1.0" encoding="utf-8"?>
<!-- Generator: Adobe Illustrator 22.1.0, SVG Export Plug-In . SVG Version: 6.00 Build 0)  -->
<svg version="1.1" id="Layer_1" xmlns="http://www.w3.org/2000/svg" xmlns:xlink="http://www.w3.org/1999/xlink" x="0px" y="0px"
	 viewBox="0 0 200 200" style="enable-background:new 0 0 200 200;" xml:space="preserve">
<style type="text/css">
	.st0{fill:#FFFFFF;}
</style>
<path class="st0" d="M0,100.1c0-13.6,2.7-26.6,7.9-39s12.4-23,21.3-31.9S48.7,13.1,61.1,7.9S86.4,0,99.9,0c13.6,0,26.6,2.7,39,7.9
	s23,12.4,31.9,21.3c9,8.9,16.1,19.5,21.3,31.9s7.9,25.3,7.9,39c0,13.5-2.7,26.4-7.9,38.8s-12.4,23-21.3,31.9
	c-8.9,9-19.5,16.1-31.9,21.3s-25.3,7.9-39,7.9c-13.5,0-26.4-2.7-38.8-7.9s-23-12.4-31.9-21.3c-9-8.9-16.1-19.5-21.3-31.9
	S0,113.7,0,100.1z M10.6,100.1c0,12.1,2.4,23.6,7.1,34.6c4.7,11,11.1,20.6,19.1,28.6c8,8,17.5,14.3,28.6,19.1
	c11.1,4.8,22.6,7.1,34.6,7.1c12.2,0,23.7-2.4,34.7-7.1c11-4.7,20.5-11.1,28.6-19.1c8.1-8,14.4-17.5,19.1-28.6
	c4.7-11.1,7.1-22.6,7.1-34.6c0-16.1-4-31.1-12-44.8s-18.9-24.6-32.7-32.7c-13.8-8.1-28.7-12-44.8-12c-12.1,0-23.6,2.4-34.6,7.1
	S44.8,28.8,36.8,36.9S22.5,54.5,17.7,65.5S10.6,88,10.6,100.1z"/>
</svg>
