<?xml version="1.0" encoding="utf-8"?>
<!-- Generator: Adobe Illustrator 22.1.0, SVG Export Plug-In . SVG Version: 6.00 Build 0)  -->
<svg version="1.1" id="Layer_1" xmlns="http://www.w3.org/2000/svg" xmlns:xlink="http://www.w3.org/1999/xlink" x="0px" y="0px"
	 viewBox="0 0 200 200.2" style="enable-background:new 0 0 200 200.2;" xml:space="preserve">
<style type="text/css">
	.st0{fill:#FFFFFF;}
</style>
<g>
	<path class="st0" d="M0,92.3c0,12.5,4.8,24,13.5,32.7c8.7,9.6,20.2,14.4,32.7,14.4c1,0,1.9-1,1.9-1.9V125c0-1-1-1.9-1.9-1.9
		c-7.7,0-15.4-3.8-21.2-9.6s-8.7-13.5-8.7-21.2c0-7.7,2.9-15.4,7.7-21.2c5.8-5.8,12.5-9.6,20.2-9.6l4.8-1c1,0,1.9-1,1.9-1.9l1-4.8
		c1-10.6,5.8-19.2,13.5-26.9s17.3-10.6,27.9-10.6c10.6,0,19.2,3.8,26.9,10.6c7.7,6.7,12.5,15.4,13.5,26l1,5.8c0,1,1,1.9,1.9,1.9
		h15.4c8.7,0,16.3,2.9,22.1,9.6c5.8,5.8,9.6,13.5,9.6,22.1c0,7.7-2.9,15.4-8.7,21.2c-5.8,5.8-12.5,9.6-21.2,9.6c-1,0-1.9,1-1.9,1.9
		v12.5c0,1,1,1.9,1.9,1.9c12.5,0,24-4.8,32.7-14.4c8.7-9.6,13.5-20.2,13.5-32.7c0-8.7-1.9-16.3-6.7-24c-3.8-7.7-9.6-13.5-17.3-17.3
		c-7.7-3.8-15.4-6.7-24-6.7H149c-2.9-12.5-9.6-23.1-20.2-31.7C118.3,4.8,106.7,0,93.3,0s-26,3.8-36.5,12.5S39.4,31.7,36.5,45.2
		C26,48.1,17.3,53.8,9.6,62.5S0,80.8,0,92.3z"/>
	<g>
		<path class="st0" d="M52.3,162.9c0,1.9-0.3,3.7,1.2,5.9c1.3,1.7,2.7,2.7,4.9,3.2c2.1,0.4,3.8,0.4,5.8-0.5c1.9-1,2.9-2.9,3.8-5.8
			l1-5.8c0-1.9,0-3.8-1-5.8s-2.6-2.7-4.7-3.2c-2.4-0.6-3.9-0.7-5.9,0.3c-1.9,1-2.9,2.9-3.8,4.8C53.7,156,52.3,161.9,52.3,162.9z"/>
		<path class="st0" d="M58.5,134.8c0,1.9,0.7,4,1.9,5.8c1.6,2.2,2.9,1.9,5.8,1.9c1.9,0,3.8-0.6,5.8-1.9c1.8-1.2,1.9-4.3,1.9-6.2
			c0-1.9-0.9-3.4-1.9-5.4c-1-1.9-3.8-1.9-5.8-1.9c-1.9,0-4.2,0.4-5.8,1.9C58.9,130.6,58.5,132.9,58.5,134.8z"/>
		<path class="st0" d="M65.2,112.2c-0.3,1.9,0,3.4,1,5.3c1,1,2.5,2.3,4.8,2.9c2.1,0.5,3.8,0,5.8-1c1.9-1,2.9-2.9,3.8-4.8
			c0,0,2.3-6.5,2.9-8.7c0.6-2.1,0.1-5.3-1.2-6.7c-1.6-1.9-2.5-2.6-4.6-2.9c-2.4-0.4-4.5,0.4-6.4,1.3c-1.9,1-3,4.1-3.8,6.1
			C66.7,105.8,65.6,109.6,65.2,112.2z"/>
		<path class="st0" d="M115.3,162.9c0,1.9-0.3,3.7,1.2,5.9c1.3,1.7,2.7,2.7,4.9,3.2c2.1,0.4,3.8,0.4,5.8-0.5c1.9-1,2.9-2.9,3.8-5.8
			l1-5.8c0-1.9,0-3.8-1-5.8s-2.6-2.7-4.7-3.2c-2.4-0.6-3.9-0.7-5.9,0.3c-1.9,1-2.9,2.9-3.8,4.8C116.7,156,115.3,161.9,115.3,162.9z"
			/>
		<path class="st0" d="M121.5,134.8c0,1.9,0.7,4,1.9,5.8c1.6,2.2,2.9,1.9,5.8,1.9c1.9,0,3.8-0.6,5.8-1.9c1.8-1.2,1.9-4.3,1.9-6.2
			c0-1.9-0.9-3.4-1.9-5.4c-1-1.9-3.8-1.9-5.8-1.9c-1.9,0-4.2,0.4-5.8,1.9C121.9,130.6,121.5,132.9,121.5,134.8z"/>
		<path class="st0" d="M128.2,112.2c-0.3,1.9,0,3.4,1,5.3c1,1,2.5,2.3,4.8,2.9c2.1,0.5,3.8,0,5.8-1c1.9-1,2.9-2.9,3.8-4.8
			c0,0,2.3-6.5,2.9-8.7c0.6-2.1,0.1-5.3-1.2-6.7c-1.6-1.9-2.5-2.6-4.6-2.9c-2.4-0.4-4.5,0.4-6.4,1.3c-1.9,1-3,4.1-3.8,6.1
			C129.7,105.8,128.6,109.6,128.2,112.2z"/>
		<path class="st0" d="M75.8,193.4c0,1.9,0.2,2.2,1.8,4.4c1.3,1.7,3,2.4,4.9,2.4c1,0,1.9,0,1.9,0c3.8,0,6.7-1.9,7.7-5.8
			c0,0,0.6-3.8,1-5.8c0.6-3,0-4.8-1-6.7c-1-1.9-2.7-3.5-4.8-3.8c-2.4-0.4-4.3,0.3-6.3,1.2c-1.9,1-2.7,2.5-3.4,4.5
			c-0.4,1.4-1.4,4.1-1.5,5.5C76.1,191,75.8,192.4,75.8,193.4z"/>
		<path class="st0" d="M83.5,164.6c0,1.9,1,3.8,1.9,5.8c1.9,1.9,2.9,1.9,5.8,1.9c1.9,0,3.8-1,5.8-1.9c1.9-1.9,1.9-3.8,1.9-5.8
			s-0.7-4-1.9-5.8c-1.6-2.2-3.8-1.9-5.8-1.9c-1.9,0-4.1,0.5-5.8,1.9C84.4,159.7,83.5,162.7,83.5,164.6z"/>
		<path class="st0" d="M89.3,142.5c0,1,0,2.9,1,4.8s2,2.4,3.8,2.9c2.1,0.5,3.8,0,5.8-1c1.9-1,2.9-2.9,3.8-5.8l2.9-8.7
			c0.4-2.5,1-4.1-0.5-6.3c-1.3-1.7-2.4-2.6-4.4-3.3c-2.4-0.8-4.6,0-6.6,0.9c-1.9,1-2,2.8-2.9,5.8C92.1,131.9,89.3,141.5,89.3,142.5z
			"/>
	</g>
</g>
</svg>
