<?xml version="1.0" encoding="utf-8"?>
<!-- Generator: Adobe Illustrator 22.1.0, SVG Export Plug-In . SVG Version: 6.00 Build 0)  -->
<svg version="1.1" id="Layer_1" xmlns="http://www.w3.org/2000/svg" xmlns:xlink="http://www.w3.org/1999/xlink" x="0px" y="0px"
	 viewBox="0 0 200 194.2" style="enable-background:new 0 0 200 194.2;" xml:space="preserve">
<style type="text/css">
	.st0{fill:#FFFFFF;}
</style>
<g>
	<path class="st0" d="M0,91.3c0-10.6,3.8-21.2,10.6-29.8s15.4-14.4,26-16.3c2.9-13.5,9.6-24,20.2-32.7S78.8,0,93.3,0
		c13.5,0,25,3.8,35.6,12.5c10.6,8.7,17.3,18.3,20.2,31.7h2.9c8.7,0,16.3,1.9,24,5.8c7.7,3.8,13.5,9.6,17.3,17.3s6.7,15.4,6.7,24
		s-1.9,16.3-5.8,23.1c-3.8,6.7-9.6,13.5-16.3,17.3c-6.7,4.8-14.4,6.7-23.1,6.7c-1,0-1.9-1-1.9-1.9V124c0-1,1-1.9,1.9-1.9
		c8.7,0,15.4-3.8,21.2-9.6c5.8-5.8,8.7-13.5,8.7-22.1S181.7,75,175,68.3s-13.5-9.6-22.1-9.6h-15.4c-1,0-1.9-1-1.9-1.9l-1-5.8
		c-1-10.6-5.8-19.2-13.5-26s-17.3-10.6-27.9-10.6S73.1,18.3,65.4,25c-7.7,6.7-12.5,15.4-13.5,26v7.7c0,1-1,1.9-1.9,1.9h-4.8
		c-7.7,1-14.4,4.8-20.2,10.6s-7.7,12.5-7.7,21.2s2.9,15.4,8.7,22.1c5.8,6.7,12.5,9.6,21.2,9.6c1,0,1.9,1,1.9,1.9v12.5
		c0,1-1,1.9-1.9,1.9c-12.5-1-24-5.8-32.7-14.4S0,103.8,0,91.3z"/>
	<g>
		<path class="st0" d="M51.6,157.9c0,0,0-1.2,0.3-2.2L67.3,100c1-2.7,1.6-3.1,2.8-4.1c1.1-0.8,2.6-1,4.5-1c1,0,2.3,0.2,2.3,0.2
			c2.4,0.5,4.3,1.7,5.2,3.6c1,1.9,1,4,0.5,7l-15.4,53.8c-1,3.8-3.5,5.8-7.3,5.8c0,0-1.7,0.1-2.3,0c-2.8-0.4-3.9-1.6-4.8-2.9
			C51.8,160.9,51.6,159.9,51.6,157.9z"/>
		<path class="st0" d="M76.9,184.6L100,100c1-2.2,1.4-3.6,3.2-4.8c1.5-1,2.4-1.2,4.4-1.2c1,0,2.4,0,3.6,0.3c2.3,1,3.3,1.9,4.2,3.8
			c1,1.9,1.2,3.5,1,5.8l-23.1,84.6c-0.5,1.9-2,3.9-3.9,4.9c-1.9,1-1.8,0.9-3.8,0.9c-1,0-1.9,0-1.9,0c-1.9,0-3.6-0.7-5.7-2.8
			C76.5,188.8,76.2,187.6,76.9,184.6z"/>
		<path class="st0" d="M116,158.2c0,0,0-1.4,0.3-2.4l15.4-55.8c0.9-2.6,1.9-3.3,2.9-4.2c1.9-1,2.9-0.9,4.8-0.9c1,0,3.1,0.3,4,0.6
			c1.9,0.7,2.7,1.3,3.7,2.3c1,1,1.3,2.6,1.3,4.5l-0.4,2.5l-15.4,54.8c-0.7,2.1-2.5,4.5-2.9,4.8c-1.6,1.3-3,2-4.8,1.9h-1.9
			c-2-0.4-3.1-0.6-5.3-2.6C116,161.2,116,160.1,116,158.2z"/>
	</g>
</g>
</svg>
