<?xml version="1.0" encoding="utf-8"?>
<!-- Generator: Adobe Illustrator 22.1.0, SVG Export Plug-In . SVG Version: 6.00 Build 0)  -->
<svg version="1.1" id="Layer_1" xmlns="http://www.w3.org/2000/svg" xmlns:xlink="http://www.w3.org/1999/xlink" x="0px" y="0px"
	 viewBox="0 0 200 193.1" style="enable-background:new 0 0 200 193.1;" xml:space="preserve">
<style type="text/css">
	.st0{fill:#FFFFFF;}
</style>
<path class="st0" d="M0,91.8c0-11.2,3.4-21.1,10.2-29.7s15.6-14.3,26.5-17c3-13.1,9.8-23.9,20.3-32.4S79.6,0,93.2,0
	c13.3,0,25.1,4.2,35.5,12.4s17.2,18.8,20.3,31.8h3.1c8.6,0,16.6,2.1,23.9,6.4c7.3,4.2,13.2,10,17.5,17.4c4.2,7.3,6.5,15.4,6.5,23.9
	c0,12.7-4.4,23.9-13.4,33c-8.9,9.3-19.8,14.1-32.6,14.5c-1.3,0-1.9-0.6-1.9-1.6v-12.8c0-1.2,0.7-1.7,1.9-1.7
	c8.2-0.4,15.3-3.7,21.1-9.9c5.8-6.2,8.7-13.3,8.7-21.5c0-8.6-3.1-15.9-9.4-22.2c-6.3-6.3-13.7-9.4-22.4-9.4h-15.5
	c-1.2,0-1.7-0.6-1.7-1.6l-0.8-5.6c-1.1-10.4-5.6-19.2-13.4-26.3c-7.9-7-17-10.6-27.5-10.6c-10.6,0-19.8,3.6-27.6,10.7
	S53,42.7,52.1,53.3l-0.6,4.8c0,1.2-0.7,1.8-1.9,1.8l-5.1,0.7c-8,0.7-14.8,4-20.3,10c-5.5,6.1-8.2,13-8.2,21.1
	c0,8.2,2.9,15.4,8.7,21.5c5.8,6.2,12.8,9.4,21.1,9.9c1.1,0,1.6,0.6,1.6,1.7v12.8c0,1.1-0.6,1.6-1.6,1.6
	c-12.9-0.4-23.9-5.2-32.8-14.5C4.4,115.7,0,104.6,0,91.8z M53.1,166.2c0-2.2,0.8-4.2,2.4-5.8c1.5-1.4,3.4-2.2,5.5-2.2
	c2.2,0,4.2,0.8,5.7,2.2s2.3,3.4,2.3,5.7s-0.8,4.2-2.3,5.7c-1.5,1.5-3.4,2.2-5.7,2.2c-2.2,0-4.2-0.8-5.7-2.2
	C53.9,170.4,53.1,168.4,53.1,166.2z M61.4,131.1c0-2.1,0.8-4.1,2.3-5.6c1.5-1.5,3.4-2.3,5.7-2.3c2.2,0,4.2,0.8,5.7,2.3
	c1.5,1.5,2.3,3.5,2.3,5.6c0,2.3-0.8,4.2-2.3,5.8c-1.5,1.6-3.4,2.4-5.7,2.4c-2.2,0-4.2-0.8-5.7-2.4C62.2,135.4,61.4,133.5,61.4,131.1
	z M79.8,185.1c0-2.2,0.8-4.2,2.4-5.9c1.5-1.5,3.4-2.3,5.5-2.3c2.3,0,4.2,0.8,5.9,2.4c1.6,1.6,2.4,3.6,2.4,5.8s-0.8,4.2-2.4,5.7
	c-1.6,1.5-3.6,2.3-5.9,2.3c-2.2,0-4.1-0.8-5.6-2.3C80.6,189.2,79.8,187.3,79.8,185.1z M88.2,149.8c0-2.3,0.8-4.2,2.3-6
	c1.5-1.5,3.5-2.3,5.6-2.3c2.2,0,4.2,0.8,5.8,2.4c1.6,1.6,2.4,3.6,2.4,5.9c0,2.2-0.8,4.2-2.4,5.8c-1.6,1.6-3.6,2.4-5.8,2.4
	c-2.2,0-4.1-0.8-5.6-2.4C88.9,153.9,88.2,152,88.2,149.8z M92.2,114.8c0-2.2,0.8-4.2,2.4-5.8c1.7-1.5,3.6-2.3,5.5-2.3
	c2.3,0,4.2,0.8,5.9,2.4c1.6,1.6,2.4,3.5,2.4,5.8c0,2.2-0.8,4.2-2.4,5.7c-1.6,1.5-3.6,2.3-5.9,2.3c-2.2,0-4.1-0.8-5.6-2.3
	C93,119,92.2,117,92.2,114.8z M115.1,166.2c0-2.2,0.8-4.2,2.3-5.8c1.5-1.4,3.5-2.2,5.8-2.2s4.2,0.8,5.7,2.2c1.5,1.5,2.2,3.4,2.2,5.7
	s-0.8,4.2-2.2,5.7c-1.5,1.5-3.4,2.2-5.7,2.2s-4.2-0.8-5.8-2.3C115.9,170.3,115.1,168.4,115.1,166.2z M123.3,131.1
	c0-2.1,0.8-4,2.4-5.6c1.6-1.6,3.6-2.4,5.8-2.4s4.2,0.8,5.7,2.3c1.5,1.5,2.3,3.5,2.3,5.6c0,2.3-0.8,4.2-2.3,5.8
	c-1.5,1.6-3.4,2.4-5.7,2.4s-4.2-0.8-5.8-2.4C124.2,135.3,123.3,133.4,123.3,131.1z"/>
</svg>
