<?xml version="1.0" encoding="utf-8"?>
<!-- Generator: Adobe Illustrator 22.1.0, SVG Export Plug-In . SVG Version: 6.00 Build 0)  -->
<svg version="1.1" id="Layer_1" xmlns="http://www.w3.org/2000/svg" xmlns:xlink="http://www.w3.org/1999/xlink" x="0px" y="0px"
	 viewBox="0 0 200 203.6" style="enable-background:new 0 0 200 203.6;" xml:space="preserve">
<style type="text/css">
	.st0{fill:#FFFFFF;}
</style>
<g>
	<path class="st0" d="M47.3,100.4l-6.8,18.3c-4.8,11.6-5.8,16.4-9.7,25.1l-6.8,16.4c0,1,0,1.9,1,1.9h20.3l-9.7,41.5h2.9l37.6-55v-1
		l-1-1H54l24.1-44.4c0.4-1.2,0-1.9-1-1.9h-28C49.2,100.4,49.2,100.4,47.3,100.4z"/>
	<path class="st0" d="M194,68.5c-3.9-7.7-9.7-13.5-17.4-17.4c-7.7-3.9-15.4-6.8-24.1-6.8h-2.9c-2.9-12.5-9.7-23.2-20.3-31.8
		C118.7,4.8,107.1,0,93.6,0S67.6,3.9,56.9,12.5S39.6,31.8,36.7,45.4c-10.6,2.9-19.3,7.7-26.1,16.4S0,81.1,0,91.7s2.9,20.3,9.7,29
		S29,135.1,34.7,138c1,0,1,1,2.9,1c2.9-6.8,3.9-8.7,6.8-14.5c0,0-1,0-1-1c-1-1-1.9-1-3.9-1.9c-6.8-1-11.6-3.9-16.4-9.7
		s-6.8-12.5-6.8-19.3c0-7.7,2.9-15.4,7.7-21.2c5.8-5.8,12.5-9.7,20.3-10.6l4.8-1c1,0,1.9-1,1.9-1.9l1-4.8c1-10.6,5.8-19.3,13.5-26.1
		s17.4-10.6,27-10.6s19.3,3.9,27,10.6c7.7,6.8,12.5,15.4,13.5,26.1l1,5.8c0,1,1,1.9,1.9,1.9h15.4c8.7,0,16.4,2.9,22.2,8.7
		c5.8,5.8,9.7,13.5,9.7,22.2c0,7.7-2.9,15.4-8.7,21.2c-5.8,5.8-12.5,9.7-21.2,9.7c-1,0-1.9,1-1.9,1.9V138c0,1,1,1.9,1.9,1.9
		c12.5,0,24.1-4.8,32.8-14.5c8.7-9.7,13.5-20.3,13.5-33.8C200.7,84,198.8,76.2,194,68.5z"/>
	<g>
		<path class="st0" d="M139.6,99.4c-3-0.9-5.8,0-7.7,1.9c-1,1-1.9,1.9-2.9,4.8l-14.5,55v1v1c0,1,0.2,2.3,1,3.9
			c1,1.9,2.7,3.3,4.5,3.8c0.9,0.3,2.3,0.2,3.2,0.1c1-0.1,1.5-0.2,2.9-1c1.9-1,3-2.8,3.9-5.8l13.5-55c0.2-1.4,0.1-2.2,0.1-3.1
			C143.6,104,142.8,100.8,139.6,99.4z"/>
		<path class="st0" d="M103.9,99.4c-1.9,0-2.9,0-4.8,1c-1,1-1.6,1.4-2.9,4.8l-22.2,84c-0.4,1.4-0.5,2.9-0.5,3.9
			c0,3.9,2.4,5.8,6.3,6.7h1c1,0,1,0,1,0c1.9,0,2.9,0,4.8-1c1.9-1,2.3-2.8,2.9-4.8l21.2-84c0.6-2.8,0.7-4.6,0-6.9
			C109.7,100.1,103.9,99.4,103.9,99.4z"/>
	</g>
</g>
</svg>
